<svg id="Capa_1" enable-background="new 0 0 512 512" viewBox="0 0 512 512" xmlns="http://www.w3.org/2000/svg"><g><path d="m440.973 0h-314.696c-38.75 0-70.277 31.47-70.277 70.15v311.28c11.831-8.5 26.337-13.51 41.996-13.51h358.004v-352.92c0-8.28-6.732-15-15.027-15zm-153.196 72.43c-8.295 0-15.027-6.72-15.027-15 0-8.29 6.732-15 15.027-15h71.529c5.52 0 10.589 3.01 13.214 7.85s2.384 10.73-.621 15.34l-58.716 89.95h47.886c8.245 0 15.027 6.77 15.027 15s-6.782 15-15.027 15h-75.616c-5.5 0-10.589-3.02-13.214-7.85s-2.384-10.73.621-15.34l58.726-89.95zm-164.917 92.8 42.567-111.55c.02-.05.07-.18.13-.34 1.693-4.14 6.842-10.91 16.269-10.91h.02c9.397 0 14.556 6.73 16.269 10.88.08.19.14.35.16.41l42.176 111.55c2.935 7.76-.982 16.41-8.756 19.33-7.764 2.93-16.43-.98-19.365-8.73l-6.832-18.08h-47.636l-6.912 18.12c-2.935 7.69-11.691 11.61-19.395 8.68-7.703-2.93-11.63-11.67-8.695-19.36zm260.249 144.881c0 8.28-6.732 15-15.027 15h-224.164c-8.295 0-15.027-6.72-15.027-15v-59.78c0-8.28 6.732-15 15.027-15h224.163c8.295 0 15.027 6.72 15.027 15v59.78z"/><path d="m181.786 95.08-12.482 32.71h24.855z"/><path d="m158.945 265.33h194.109v29.78h-194.109z"/><path d="m253.265 466.761h188.85c7.664 0 13.885-6.21 13.885-13.86v-54.98h-202.735z"/><path d="m137.449 500.316c-.002 4.395 2.481 8.435 6.407 10.423 3.928 1.989 8.661 1.603 12.213-.997l24.255-17.722 24.263 17.722c3.552 2.6 8.286 2.986 12.213.997 3.927-1.988 6.41-6.028 6.407-10.423v-102.395h-85.759v102.395z"/><path d="m56.692 432.341c0 19.01 15.438 34.42 34.482 34.42h16.218v-68.84h-16.218c-19.044 0-34.482 15.41-34.482 34.42z"/></g><g/><g/><g/><g/><g/><g/><g/><g/><g/><g/><g/><g/><g/><g/><g/></svg>