<svg id="Capa_1" enable-background="new 0 0 512 512" height="512" viewBox="0 0 512 512" width="512" xmlns="http://www.w3.org/2000/svg"><g><circle cx="256" cy="256" fill="#44ddd0" r="256"/><path d="m305.76 203.335-53.664-53.664-189.779 189.779 171.591 171.591c7.283.623 14.647.959 22.092.959 141.385 0 256-114.615 256-256 0-12.518-.916-24.821-2.652-36.858l-109.697-109.698z" fill="#2ebfae"/><g><path d="m27.766 256c0 65.198 52.854 118.052 118.052 118.052l15.387-118.052-15.387-118.052c-65.198 0-118.052 52.854-118.052 118.052z" fill="#fff"/><path d="m263.87 256c0-65.198-52.854-118.052-118.052-118.052v236.104c65.198 0 118.052-52.854 118.052-118.052z" fill="#e9edf5"/><circle cx="69.724" cy="266.234" fill="#e9edf5" r="11.161"/><path d="m90.021 236.598c0 3.698-2.998 6.697-6.697 6.697s-6.697-2.998-6.697-6.697 2.998-6.697 6.697-6.697 6.697 2.999 6.697 6.697z" fill="#e9edf5"/><g fill="#cdd2e1"><circle cx="171.14" cy="297.679" r="13.393"/><circle cx="167.902" cy="266.234" r="6.697"/><circle cx="212.583" cy="303.375" r="6.697"/><ellipse cx="201.899" cy="208.674" rx="15.625" ry="15.339"/></g></g><g><path d="m277.324 115.328-46.922-5.885-18.329 43.604-43.604 18.329 5.885 46.922-28.536 37.702 28.536 37.702-5.885 46.922 43.604 18.329 18.329 43.604 46.922-5.885 37.702 28.536 21.35-169.208-21.35-169.208z" fill="#fcc74c"/><path d="m399.65 402.557 18.329-43.604 43.604-18.329-5.885-46.922 28.536-37.702-28.536-37.702 5.885-46.922-43.604-18.329-18.329-43.604-46.922 5.885-37.702-28.536v338.416l37.702-28.536z" fill="#f49f36"/><path d="m196.974 256c0 65.198 52.854 118.052 118.052 118.052l19.34-118.052-19.34-118.052c-65.198 0-118.052 52.854-118.052 118.052z" fill="#fddf55"/><path d="m433.078 256c0-65.198-52.854-118.052-118.052-118.052v236.104c65.198 0 118.052-52.854 118.052-118.052z" fill="#fcc74c"/></g></g></svg>