<?xml version="1.0" standalone="no"?>
<!DOCTYPE svg PUBLIC "-//W3C//DTD SVG 20010904//EN"
 "http://www.w3.org/TR/2001/REC-SVG-20010904/DTD/svg10.dtd">
<svg version="1.0" xmlns="http://www.w3.org/2000/svg"
 width="600.000000pt" height="600.000000pt" viewBox="0 0 600.000000 600.000000"
 preserveAspectRatio="xMidYMid meet">

<g transform="translate(0.000000,600.000000) scale(0.100000,-0.100000)"
fill="#000000" stroke="none">
<path d="M1176 5724 c-476 -86 -846 -449 -953 -936 -17 -79 -18 -176 -18
-1843 l0 -1760 30 -54 c22 -41 130 -153 430 -446 339 -332 408 -395 450 -411
49 -18 101 -19 1890 -19 l1840 0 55 27 c44 22 137 108 457 423 369 363 403
400 422 451 21 55 21 62 21 1774 0 1168 -3 1743 -11 1796 -16 119 -54 239
-114 359 -168 338 -477 570 -854 640 -73 13 -294 15 -1825 14 -1462 -1 -1754
-3 -1820 -15z m3444 -303 c432 -39 740 -310 843 -744 l22 -92 0 -1600 0 -1600
-23 -45 c-34 -68 -658 -717 -724 -752 l-50 -28 -1687 0 c-1616 0 -1688 1
-1727 19 -54 25 -687 680 -727 752 l-27 51 0 1597 c0 1519 1 1600 19 1686 88
424 408 716 826 754 121 11 3135 13 3255 2z"/>
<path d="M2094 5201 c-206 -105 -474 -562 -594 -1016 -41 -153 -80 -374 -80
-449 0 -77 33 -150 114 -248 98 -118 295 -268 453 -344 165 -80 303 -45 320
82 14 110 -48 187 -275 337 -159 105 -207 147 -218 194 -15 59 41 280 125 494
86 220 148 331 290 520 126 167 155 224 156 300 0 95 -56 148 -168 156 -55 4
-69 1 -123 -26z"/>
<path d="M3797 5215 c-112 -39 -134 -147 -57 -282 16 -28 74 -110 128 -183 55
-72 122 -173 150 -223 119 -216 252 -606 252 -739 0 -41 -5 -54 -37 -89 -20
-22 -101 -83 -180 -134 -226 -150 -278 -208 -278 -317 0 -95 59 -148 163 -148
180 0 585 298 689 506 33 69 38 86 36 144 -2 87 -54 348 -103 512 -49 169 -94
279 -179 444 -214 412 -401 575 -584 509z"/>
<path d="M1375 5197 c-84 -33 -171 -114 -241 -222 -152 -238 -285 -702 -359
-1247 -18 -135 -14 -160 42 -273 144 -286 474 -615 617 -615 48 0 92 40 127
115 49 102 53 92 -156 350 -155 193 -238 302 -259 343 -16 32 -16 40 -1 145
30 202 126 542 230 808 66 169 80 198 168 332 64 98 69 111 64 148 -11 81 -68
129 -152 128 -27 0 -63 -6 -80 -12z"/>
<path d="M4539 5187 c-39 -26 -75 -102 -66 -139 4 -13 41 -77 83 -142 47 -73
95 -163 124 -235 127 -312 248 -741 266 -938 l6 -68 -53 -75 c-29 -41 -117
-154 -194 -250 -78 -96 -159 -199 -180 -229 -38 -53 -38 -54 -26 -100 17 -64
57 -129 94 -152 77 -48 183 6 358 180 171 172 300 355 350 497 25 71 23 107
-26 402 -133 794 -376 1272 -645 1272 -43 0 -66 -6 -91 -23z"/>
<path d="M2653 4783 c-280 -278 -365 -378 -429 -508 -49 -101 -60 -168 -40
-238 46 -160 310 -435 478 -499 93 -35 115 -27 286 100 46 34 89 62 94 62 6 0
52 -31 102 -69 127 -96 155 -111 201 -111 134 0 402 229 521 445 35 63 39 77
39 141 -1 61 -6 81 -41 155 -70 143 -147 236 -436 522 l-271 267 -117 0 -116
0 -271 -267z"/>
<path d="M2945 3172 c-187 -100 -438 -312 -471 -397 -22 -59 -16 -165 12 -220
12 -22 49 -92 82 -156 74 -139 99 -225 83 -280 -6 -21 -31 -64 -55 -96 -76
-102 -79 -111 -73 -247 5 -137 22 -201 70 -272 47 -70 78 -89 143 -89 102 0
128 59 104 239 -15 111 -9 154 26 196 l26 30 148 0 c145 0 148 0 173 -26 37
-36 42 -77 27 -219 -11 -102 -11 -128 0 -155 15 -37 63 -70 102 -70 111 0 194
119 218 314 14 112 2 193 -36 246 -97 135 -94 130 -94 186 0 70 32 156 113
301 102 184 109 283 26 377 -48 55 -218 193 -310 252 -91 59 -211 124 -229
124 -8 0 -46 -17 -85 -38z"/>
<path d="M1919 2710 c-20 -5 -91 -36 -157 -69 -191 -94 -269 -104 -507 -71
-84 12 -170 6 -220 -14 -43 -18 -89 -75 -116 -143 -22 -54 -24 -72 -23 -248 0
-163 4 -213 28 -350 84 -481 210 -796 340 -845 66 -24 171 23 205 93 38 78 27
129 -72 342 -30 66 -62 147 -71 180 -45 174 -64 425 -37 475 43 78 92 101 271
124 63 8 140 24 170 36 30 12 100 38 154 57 186 65 288 133 327 218 35 77 17
170 -40 200 -37 19 -199 29 -252 15z"/>
<path d="M3969 2712 c-96 -15 -133 -75 -110 -179 24 -106 122 -179 343 -258
68 -24 140 -51 162 -60 21 -9 91 -23 155 -31 64 -8 137 -22 162 -30 54 -17
102 -64 119 -118 15 -47 8 -168 -20 -331 -21 -122 -39 -174 -125 -369 -66
-149 -74 -188 -51 -251 23 -58 71 -99 135 -115 46 -11 55 -10 94 9 75 36 142
152 212 366 100 304 169 746 146 931 -32 260 -131 331 -400 290 -201 -31 -282
-17 -482 80 -125 61 -139 66 -214 69 -44 2 -101 0 -126 -3z"/>
<path d="M1925 2006 c-129 -25 -253 -87 -296 -148 -19 -26 -21 -39 -16 -96 10
-112 105 -358 220 -567 167 -305 337 -470 480 -468 62 1 149 44 185 90 53 70
31 158 -74 294 -26 34 -106 130 -179 215 -143 168 -181 228 -170 272 3 15 40
78 82 139 70 105 75 116 70 153 -6 47 -27 83 -61 106 -34 21 -155 27 -241 10z"/>
<path d="M3950 2009 c-60 -18 -100 -74 -100 -140 0 -9 36 -71 80 -139 51 -78
80 -133 80 -150 0 -37 -57 -119 -191 -275 -183 -212 -247 -305 -264 -383 -19
-91 103 -197 226 -195 172 3 404 285 589 717 64 148 100 273 100 342 0 45 -5
59 -31 89 -36 41 -148 98 -234 120 -79 20 -211 27 -255 14z"/>
</g>
</svg>
