<svg id="Layer_1" enable-background="new 0 0 100 100" viewBox="0 0 100 100" xmlns="http://www.w3.org/2000/svg"><path d="m50 2.5000029c-26.2335262 0-47.5 21.2664719-47.5 47.4999962s21.2664738 47.5000009 47.5 47.5000009 47.5-21.2664795 47.5-47.5-21.2664719-47.4999971-47.5-47.4999971zm0 89.0624971c-22.9543343 0-41.5625-18.6081619-41.5625-41.5625s18.6081657-41.5624971 41.5625-41.5624971 41.5625 18.6081647 41.5625 41.5624971-18.6081619 41.5625-41.5625 41.5625z"/><path d="m50 15.8852406c-18.8410625.0037355-34.1117325 15.2804604-34.1079979 34.121521.0037346 18.8357753 15.2722168 34.1042613 34.1079979 34.1079921 1.4284325 0 2.5864105-1.1579742 2.5864105-2.5864105v-63.056694c0-1.4284325-1.157978-2.5864086-2.5864105-2.5864086z"/></svg>